<?xml version="1.0" encoding="UTF-8"?>
<svg version="1.1" xmlns="http://www.w3.org/2000/svg" width="881" height="225" viewBox="0 0 881 225">
  <!-- shinko1 logo: transparent background, black letterforms, red 1 -->
  <g id="letterforms">
  <path d="M0 0 C0 14.85 0 29.7 0 45 C2.204 44.983 2.204 44.983 13.359 44.895 C16.906 44.875 20.452 44.859 23.999 44.845 C27.725 44.829 31.452 44.808 35.178 44.774 C38.777 44.741 42.375 44.723 45.974 44.715 C47.994 44.707 50.015 44.684 52.035 44.66 C65.441 44.658 76.21 46.752 86.191 56.039 C94.477 64.676 97.164 74.089 97.114 85.808 C97.114 86.696 97.114 87.584 97.114 88.499 C97.113 91.432 97.105 94.364 97.098 97.297 C97.096 99.331 97.094 101.366 97.093 103.4 C97.09 108.753 97.08 114.106 97.069 119.459 C97.058 124.922 97.054 130.385 97.049 135.848 C97.038 146.565 97.021 157.283 97 168 C85.12 168 73.24 168 61 168 C60.67 139.62 60.34 111.24 60 82 C40.53 82 21.06 82 1 82 C0.67 110.38 0.34 138.76 0 168 C-11.88 168 -23.76 168 -36 168 C-36.059 146.682 -36.068 125.365 -36.012 104.047 C-36.004 100.688 -35.997 97.328 -35.991 93.969 C-35.976 84.966 -35.943 75.965 -35.866 66.963 C-35.834 63.081 -35.809 59.199 -35.805 55.317 C-35.8 51.653 -35.772 47.99 -35.727 44.326 C-35.708 42.358 -35.713 40.39 -35.719 38.422 C-35.55 28.123 -33.076 18.2 -25.793 10.523 C-18.329 4.181 -9.812 0 0 0 Z " fill="#000000" transform="translate(214,23)"/>
  <path d="M0 0 C1.189 -0.006 2.378 -0.013 3.603 -0.019 C4.901 -0.02 6.198 -0.022 7.535 -0.023 C8.878 -0.026 10.22 -0.029 11.562 -0.033 C14.386 -0.039 17.21 -0.041 20.034 -0.04 C23.628 -0.04 27.222 -0.054 30.816 -0.071 C33.595 -0.082 36.374 -0.084 39.153 -0.083 C41.114 -0.085 43.076 -0.096 45.038 -0.107 C55.515 -0.08 65.917 0.386 74.446 7.145 C79.708 12.89 82.467 18.437 83.446 26.145 C81.627 27.964 78.787 27.301 76.34 27.322 C75.686 27.329 75.686 27.329 72.374 27.361 C70.93 27.369 69.487 27.377 68.043 27.384 C67.317 27.388 66.592 27.392 65.844 27.396 C61.994 27.417 58.144 27.431 54.294 27.44 C50.336 27.451 46.38 27.486 42.422 27.526 C39.365 27.552 36.309 27.56 33.252 27.564 C31.794 27.569 30.337 27.58 28.88 27.599 C18.76 27.72 8.712 27.103 0.828 19.895 C-3.299 14.672 -7.26 7.959 -6.554 1.145 C-4.806 -0.603 -2.376 0.009 0 0 Z " fill="#000000" transform="translate(666.554443359375,31.854736328125)"/>
  <path d="M0 0 C15.84 0 31.68 0 48 0 C42.568 21.73 29.875 38.129 10.777 49.959 C2.065 55.061 -7.12 58.843 -17 61 C-15.989 61.371 -14.979 61.743 -13.938 62.125 C-13.209 62.402 -12.481 62.679 -11.73 62.965 C-9.676 63.744 -7.615 64.503 -5.551 65.254 C3.129 68.486 10.504 72.467 18 78 C18.824 78.589 19.647 79.178 20.496 79.785 C25.722 83.654 29.991 87.887 34 93 C34.299 93.381 34.299 93.381 35.812 95.309 C42.184 103.891 45.417 112.667 48 123 C32.16 123 16.32 123 0 123 C-0.99 118.38 -1.98 113.76 -3 109 C-5.921 100.804 -9.106 94.398 -15 88 C-15.623 87.323 -16.245 86.646 -16.887 85.949 C-32.541 70.593 -55.305 67.299 -76 64 C-76 62.35 -76 60.7 -76 59 C-75.382 58.905 -74.764 58.81 -74.127 58.712 C-49.757 54.901 -25.444 49.444 -9.75 28.688 C-3.934 19.756 -2.247 10.487 0 0 Z " fill="#000000" transform="translate(579,64)"/>
  <path d="M0 0 C0.864 -0.001 1.727 -0.003 2.617 -0.004 C3.557 -0.001 4.496 0.003 5.464 0.007 C6.459 0.007 7.455 0.006 8.481 0.006 C11.77 0.007 15.06 0.015 18.35 0.023 C20.631 0.024 22.912 0.026 25.193 0.027 C31.197 0.031 37.201 0.041 43.205 0.052 C49.331 0.062 55.458 0.066 61.584 0.071 C73.605 0.082 85.626 0.099 97.647 0.12 C99.565 11.633 98.647 23.449 98.647 35.12 C67.957 35.12 37.267 35.12 5.647 35.12 C5.647 38.42 5.647 41.72 5.647 45.12 C36.007 45.12 66.367 45.12 97.647 45.12 C97.874 53.989 98.1 62.858 98.334 71.995 C98.414 74.776 98.493 77.556 98.575 80.421 C98.625 82.651 98.674 84.882 98.721 87.112 C98.758 88.249 98.795 89.385 98.833 90.556 C99.007 99.936 97.871 108.718 91.647 116.12 C83.663 123.518 75.613 124.427 65.1 124.347 C64.587 124.347 64.587 124.347 61.993 124.348 C58.627 124.347 55.262 124.331 51.897 124.316 C49.554 124.312 47.211 124.309 44.869 124.307 C38.72 124.299 32.572 124.28 26.423 124.258 C20.142 124.237 13.861 124.228 7.58 124.218 C-4.731 124.196 -17.042 124.161 -29.353 124.12 C-29.353 112.57 -29.353 101.02 -29.353 89.12 C1.007 88.79 31.367 88.46 62.647 88.12 C62.977 85.48 63.307 82.84 63.647 80.12 C32.957 80.12 2.267 80.12 -29.353 80.12 C-29.415 70.88 -29.477 61.64 -29.541 52.12 C-29.568 49.217 -29.595 46.314 -29.624 43.323 C-29.632 41.006 -29.64 38.688 -29.646 36.37 C-29.662 35.18 -29.677 33.991 -29.693 32.765 C-29.696 22.486 -27.81 15.804 -20.678 8.171 C-14.873 3.05 -7.75 -0.01 0 0 Z " fill="#000000" transform="translate(71.35333251953125,67.87974548339844)"/>
  <path d="M0 0 C1.279 -0.013 2.558 -0.026 3.876 -0.039 C5.261 -0.047 6.647 -0.055 8.033 -0.061 C8.739 -0.065 9.446 -0.069 10.174 -0.074 C13.917 -0.094 17.66 -0.109 21.403 -0.118 C25.234 -0.129 29.064 -0.164 32.894 -0.203 C35.87 -0.23 38.846 -0.238 41.823 -0.241 C43.233 -0.246 44.643 -0.258 46.053 -0.276 C59.623 -0.446 72.184 1.708 82.467 11.177 C89.964 19.738 92.952 28.473 92.807 39.736 C92.808 40.644 92.808 41.553 92.808 42.489 C92.806 45.459 92.783 48.429 92.76 51.4 C92.754 53.472 92.75 55.544 92.747 57.616 C92.735 63.046 92.706 68.476 92.673 73.906 C92.642 79.457 92.628 85.007 92.613 90.558 C92.581 101.431 92.528 112.304 92.467 123.177 C80.917 123.177 69.367 123.177 57.467 123.177 C56.725 117.989 56.327 113.226 56.353 108.039 C56.353 107.257 56.353 106.476 56.353 105.671 C56.353 103.112 56.361 100.553 56.369 97.993 C56.371 96.21 56.372 94.426 56.373 92.643 C56.377 87.965 56.387 83.288 56.398 78.611 C56.41 72.99 56.415 67.369 56.42 61.748 C56.43 53.225 56.449 44.701 56.467 36.177 C36.667 36.507 16.867 36.837 -3.533 37.177 C-3.863 65.557 -4.193 93.937 -4.533 123.177 C-16.413 123.177 -28.293 123.177 -40.533 123.177 C-40.624 111.797 -40.697 100.418 -40.741 89.038 C-40.761 83.753 -40.79 78.468 -40.835 73.183 C-40.879 68.073 -40.903 62.964 -40.913 57.855 C-40.92 55.914 -40.935 53.974 -40.956 52.034 C-41.114 37.346 -40.659 23.944 -30.158 12.615 C-29.725 12.212 -29.725 12.212 -27.533 10.177 C-27.08 9.754 -27.08 9.754 -24.783 7.615 C-17.508 1.67 -9.195 0.081 0 0 Z " fill="#000000" transform="translate(404.533447265625,67.822998046875)"/>
  <path d="M0 0 C0.79 -0.006 1.581 -0.011 2.395 -0.017 C2.824 -0.018 2.824 -0.018 4.996 -0.021 C5.907 -0.026 6.818 -0.031 7.757 -0.036 C10.771 -0.05 13.786 -0.057 16.8 -0.063 C18.9 -0.068 21.001 -0.074 23.101 -0.08 C27.507 -0.09 31.914 -0.096 36.321 -0.1 C41.949 -0.105 47.578 -0.129 53.206 -0.158 C57.547 -0.176 61.888 -0.182 66.229 -0.183 C68.303 -0.186 70.377 -0.194 72.451 -0.207 C75.363 -0.224 78.275 -0.222 81.187 -0.216 C81.61 -0.221 81.61 -0.221 83.751 -0.244 C95.266 -0.164 104.078 3.93 112.577 11.578 C118.929 18.415 121.083 28.202 121.141 37.241 C121.15 38.449 121.16 39.658 121.17 40.903 C121.172 41.553 121.172 41.553 121.183 44.84 C121.184 45.173 121.184 45.173 121.191 46.861 C121.206 50.393 121.216 53.925 121.22 57.458 C121.225 61.081 121.249 64.704 121.278 68.327 C121.297 71.135 121.302 73.943 121.303 76.751 C121.308 78.728 121.326 80.706 121.345 82.683 C121.315 95.214 118.741 104.782 110.163 114.117 C102.571 121.326 94.138 123.75 83.855 123.674 C82.898 123.683 81.94 123.691 80.954 123.7 C77.819 123.723 74.685 123.716 71.55 123.707 C69.351 123.712 67.152 123.718 64.953 123.726 C60.355 123.736 55.758 123.732 51.16 123.717 C45.294 123.7 39.428 123.723 33.562 123.758 C29.024 123.78 24.486 123.779 19.947 123.771 C17.785 123.77 15.624 123.777 13.462 123.791 C0.496 123.867 -10.508 123.847 -21.395 115.89 C-31.753 105.039 -33.496 93.993 -33.454 79.367 C-33.458 77.953 -33.464 76.538 -33.47 75.124 C-33.479 72.174 -33.476 69.224 -33.466 66.274 C-33.455 62.527 -33.475 58.78 -33.504 55.033 C-33.523 52.116 -33.522 49.199 -33.517 46.281 C-33.516 44.901 -33.522 43.521 -33.535 42.141 C-33.635 29.373 -31.771 18.717 -22.665 9.34 C-16.302 4.048 -8.393 0.037 0 0 Z M1.98 35.14 C1.98 52.96 1.98 70.78 1.98 89.14 C29.7 89.14 57.42 89.14 85.98 89.14 C85.98 71.32 85.98 53.5 85.98 35.14 C58.26 35.14 30.54 35.14 1.98 35.14 Z " fill="#000000" transform="translate(661.0202941894531,67.85955810546875)"/>
  <path d="M0 0 C0 40.26 0 80.52 0 122 C-11.88 122 -23.76 122 -36 122 C-36.091 110.195 -36.164 98.39 -36.207 86.584 C-36.228 81.101 -36.256 75.619 -36.302 70.136 C-36.345 64.839 -36.369 59.542 -36.38 54.244 C-36.387 52.23 -36.401 50.215 -36.423 48.201 C-36.58 32.997 -35.608 21.176 -24.875 9.438 C-19.089 3.837 -8.191 -2.73 0 0 Z " fill="#000000" transform="translate(356,69)"/>
  </g>
  <g id="red-one">
  <path d="M0 0 C0.023 15.759 0.041 31.518 0.052 47.278 C0.057 54.594 0.064 61.911 0.075 69.228 C0.085 75.603 0.092 81.978 0.094 88.353 C0.095 91.73 0.098 95.108 0.106 98.486 C0.113 102.25 0.114 106.015 0.114 109.779 C0.117 110.907 0.121 112.035 0.124 113.197 C0.123 114.216 0.122 115.236 0.12 116.286 C0.121 117.177 0.122 118.069 0.123 118.987 C0 121 0 121 -1 122 C-3.509 122.101 -5.99 122.14 -8.5 122.133 C-9.251 122.134 -10.002 122.135 -10.775 122.136 C-12.366 122.136 -13.956 122.135 -15.547 122.13 C-17.99 122.125 -20.432 122.13 -22.875 122.137 C-24.417 122.136 -25.958 122.135 -27.5 122.133 C-28.235 122.135 -28.971 122.137 -29.729 122.139 C-34.885 122.115 -34.885 122.115 -36 121 C-36.111 118.253 -36.157 115.531 -36.161 112.783 C-36.166 111.922 -36.171 111.06 -36.176 110.172 C-36.191 107.303 -36.198 104.435 -36.203 101.566 C-36.209 99.574 -36.215 97.582 -36.22 95.589 C-36.231 91.4 -36.237 87.211 -36.24 83.022 C-36.246 77.672 -36.27 72.323 -36.298 66.973 C-36.317 62.851 -36.322 58.729 -36.324 54.606 C-36.327 52.636 -36.335 50.665 -36.348 48.694 C-36.447 32.704 -35.406 21.206 -24.117 8.957 C-16.869 2.075 -9.761 -0.1 0 0 Z " fill="#C8293A" transform="translate(843,69)"/>
  </g>
</svg>
